<?xml version="1.0" encoding="UTF-8"?>
<svg width="236px" height="54px" viewBox="0 0 236 54" version="1.1" xmlns="http://www.w3.org/2000/svg" xmlns:xlink="http://www.w3.org/1999/xlink">
    <title>logo-integrations-Desktop HD</title>
    <defs>
        <linearGradient x1="-20.7066667%" y1="120.706667%" x2="120.706667%" y2="-20.7066667%" id="linearGradient-1">
            <stop stop-color="#2E27AD" offset="0%"></stop>
            <stop stop-color="#527FFF" offset="100%"></stop>
        </linearGradient>
    </defs>
    <g id="Desktop-HD" stroke="none" stroke-width="1" fill="none" fill-rule="evenodd">
        <g id="logo-amazon-dynamodb" transform="translate(92.000000, 1.000000)" fill-rule="nonzero">
            <rect id="Blue_Gradient" fill="url(#linearGradient-1)" x="0" y="0" width="51.3" height="51.3"></rect>
            <g id="Icon_Test" transform="translate(10.944000, 8.208000)" fill="#FFFFFF">
                <path d="M23.427,19.48032 L18.90576,23.99472 C19.7191428,23.7678023 20.5039786,23.4488194 21.24504,23.04396 C21.683193,23.3157454 21.9805693,23.7655582 22.059,24.27516 C22.059,25.52688 19.40508,26.88804 15.46524,27.44208 C14.2499169,27.6064613 13.0253586,27.693277 11.799,27.702 L11.115,27.702 C5.58828,27.57204 1.539,25.82784 1.539,24.282 C1.61743073,23.7723982 1.91480698,23.3225854 2.35296,23.0508 C4.50072,24.2478 7.98228,24.95916 11.799,24.95916 L11.87424,24.95916 L12.25728,23.59116 C12.1068,23.59116 11.95632,23.59116 11.799,23.59116 C8.037,23.59116 4.5486,22.8456 2.69496,21.66912 C1.95624,21.18348 1.54584,20.6568 1.539,20.19852 L1.539,17.0316 C3.63204,18.63216 7.80444,19.46664 11.799,19.46664 C12.33936,19.46664 12.87972,19.46664 13.4064,19.41876 L13.79628,18.05076 C13.11228,18.09864 12.47616,18.11916 11.799,18.11916 C5.93028,18.11916 1.539,16.32024 1.539,14.69916 C1.61743073,14.1895582 1.91480698,13.7397454 2.35296,13.46796 C4.2408,14.52816 7.14096,15.19164 10.431,15.34212 L10.4652,13.97412 C7.22988,13.8168 4.3092,13.11912 2.69496,12.08628 C1.96308,11.61432 1.55268,11.0808 1.539,10.61568 L1.539,7.4556 C3.63204,9.05616 7.80444,9.89064 11.799,9.89064 L11.94948,9.89064 L12.67452,8.52264 L11.799,8.52264 C5.93028,8.52264 1.539,6.72372 1.539,5.10264 C1.539,3.48156 5.93028,1.68264 11.799,1.68264 C13.7756026,1.67426635 15.7460235,1.90391914 17.66772,2.36664 L21.42288,2.36664 C19.37088,1.11492 15.82776,0.31464 11.799,0.31464 C6.16284,0.31464 0.171,1.9836 0.171,5.10264 L0.171,10.60884 C0.212606136,11.3977299 0.588229036,12.1315627 1.20384,12.62664 C0.580233049,13.1300777 0.203851575,13.8778554 0.171,14.67864 L0.171,20.15064 C0.202965641,20.951654 0.579521015,21.6997772 1.20384,22.20264 C0.580233049,22.7060777 0.203851575,23.4538554 0.171,24.25464 L0.171,29.72664 C0.16697096,29.7744352 0.16697096,29.8224848 0.171,29.87028 C0.35568,32.87304 6.23808,34.48728 11.799,34.48728 C17.35992,34.48728 23.24232,32.87304 23.427,29.8566 C23.4337364,29.8089569 23.4337364,29.7606031 23.427,29.71296 L23.427,24.24096 C23.4004626,23.4385519 23.0228325,22.6882934 22.39416,22.18896 C23.018479,21.6860972 23.3950344,20.937974 23.427,20.13696 L23.427,19.48032 Z M22.059,29.74032 C22.059,31.35456 17.66772,33.16032 11.799,33.16032 C5.93028,33.16032 1.539,31.37508 1.539,29.74032 L1.539,26.59392 C3.63204,28.1808 7.80444,29.01528 11.799,29.01528 C15.79356,29.01528 19.96596,28.1808 22.059,26.59392 L22.059,29.74032 Z" id="Shape"></path>
                <circle id="Oval" cx="3.591" cy="10.61568" r="1"></circle>
                <circle id="Oval" cx="3.591" cy="20.19168" r="1"></circle>
                <circle id="Oval" cx="3.591" cy="29.76768" r="1"></circle>
                <path d="M13.509,27.0044383 C13.388557,27.0030691 13.27058,26.9700356 13.167,26.90856 C12.8928212,26.7506837 12.762697,26.425373 12.85236,26.12196 L16.69644,13.32432 L12.825,13.32432 C12.5818807,13.3274264 12.3553867,13.201239 12.2300857,12.9928732 C12.1047847,12.7845074 12.0995134,12.5252874 12.21624,12.312 L16.32024,4.104 C16.436144,3.87398472 16.6714342,3.72858065 16.929,3.7278 L25.821,3.7278 C26.0459558,3.71661337 26.262,3.81688978 26.398666,3.99592227 C26.535332,4.17495476 26.5751004,4.40979289 26.505,4.62384 L24.75396,9.8838 L28.5912,9.8838 C28.8644052,9.88483886 29.1107878,10.0483558 29.2178706,10.299703 C29.3249535,10.5510503 29.2721949,10.842012 29.08368,11.03976 L14.03568,26.77176 C13.9028837,26.9229896 13.7102244,27.0080599 13.509,27.0044383 L13.509,27.0044383 Z M13.93308,11.95632 L17.613,11.95632 C17.828294,11.95632 18.0310236,12.0576848 18.1602,12.22992 C18.2893764,12.4021552 18.3299223,12.6251578 18.26964,12.83184 L14.9796,23.77584 L26.95644,11.25864 L23.769,11.25864 C23.5423771,11.2706814 23.3245374,11.1695364 23.1874963,10.9886422 C23.0504553,10.807748 23.0120587,10.5706612 23.085,10.35576 L24.83604,5.10264 L17.31204,5.10264 L13.93308,11.95632 Z" id="Shape"></path>
            </g>
        </g>
    </g>
</svg>