<?xml version="1.0" encoding="UTF-8"?>
<svg width="236px" height="54px" viewBox="0 0 236 54" version="1.1" xmlns="http://www.w3.org/2000/svg" xmlns:xlink="http://www.w3.org/1999/xlink">
    <title>logo-integrations-Desktop HD</title>
    <defs>
        <linearGradient x1="21.902%" y1="63.905%" x2="141.879%" y2="20.213%" id="linearGradient-1">
            <stop stop-color="#F69923" offset="0%"></stop>
            <stop stop-color="#F79A23" offset="31.23%"></stop>
            <stop stop-color="#E97826" offset="83.83%"></stop>
        </linearGradient>
        <linearGradient x1="-217.651%" y1="177.127%" x2="74.743%" y2="36.665%" id="linearGradient-2">
            <stop stop-color="#9E2064" offset="32.33%"></stop>
            <stop stop-color="#C92037" offset="63.02%"></stop>
            <stop stop-color="#CD2335" offset="75.14%"></stop>
            <stop stop-color="#E97826" offset="100%"></stop>
        </linearGradient>
        <linearGradient x1="-80.044%" y1="73.574%" x2="146.24%" y2="31.539%" id="linearGradient-3">
            <stop stop-color="#9E2064" offset="32.33%"></stop>
            <stop stop-color="#C92037" offset="63.02%"></stop>
            <stop stop-color="#CD2335" offset="75.14%"></stop>
            <stop stop-color="#E97826" offset="100%"></stop>
        </linearGradient>
        <linearGradient x1="-18.316%" y1="52.497%" x2="165.002%" y2="41.656%" id="linearGradient-4">
            <stop stop-color="#282662" offset="0%"></stop>
            <stop stop-color="#662E8D" offset="9.548%"></stop>
            <stop stop-color="#9F2064" offset="78.82%"></stop>
            <stop stop-color="#CD2032" offset="94.87%"></stop>
        </linearGradient>
        <linearGradient x1="-109.701%" y1="463.715%" x2="64.617%" y2="17.19%" id="linearGradient-5">
            <stop stop-color="#9E2064" offset="32.33%"></stop>
            <stop stop-color="#C92037" offset="63.02%"></stop>
            <stop stop-color="#CD2335" offset="75.14%"></stop>
            <stop stop-color="#E97826" offset="100%"></stop>
        </linearGradient>
        <linearGradient x1="-34.88%" y1="130.522%" x2="110.599%" y2="-9.118%" id="linearGradient-6">
            <stop stop-color="#9E2064" offset="32.33%"></stop>
            <stop stop-color="#C92037" offset="63.02%"></stop>
            <stop stop-color="#CD2335" offset="75.14%"></stop>
            <stop stop-color="#E97826" offset="100%"></stop>
        </linearGradient>
        <linearGradient x1="-13.673%" y1="192.564%" x2="117.858%" y2="-136.906%" id="linearGradient-7">
            <stop stop-color="#282662" offset="0%"></stop>
            <stop stop-color="#662E8D" offset="9.548%"></stop>
            <stop stop-color="#9F2064" offset="78.82%"></stop>
            <stop stop-color="#CD2032" offset="94.87%"></stop>
        </linearGradient>
    </defs>
    <g id="Desktop-HD" stroke="none" stroke-width="1" fill="none" fill-rule="evenodd">
        <g id="logo-apache" transform="translate(106.000000, 3.000000)" fill-rule="nonzero">
            <path d="M20.4420234,0.270817121 C19.6949416,0.709727627 18.4435798,1.97042802 16.9494163,3.79143969 L16.9494163,3.90350194 L18.2568093,6.32217899 L18.322179,6.3688716 C19.2840466,4.99610895 20.2552528,3.75408561 21.2451361,2.69883269 C21.3198444,2.61478599 21.3571984,2.57743191 21.3571984,2.57743191 C21.3198444,2.61478599 21.2824903,2.66147861 21.2451361,2.69883269 C20.9276265,3.05369649 19.9564201,4.17431907 18.4996108,6.4155642 L18.6677043,6.45291828 C18.6677043,6.45291828 22.0762645,6.11673152 23.7198444,5.83657587 L23.8132296,5.75252919 C24.3361867,2.82023346 23.2996108,1.47548638 23.2996108,1.47548638 C23.2996108,1.47548638 21.9922179,-0.635019456 20.4420234,0.270817121 Z" id="Path" fill="url(#linearGradient-1)"></path>
            <path d="M14.2879377,13.0459144 C14.7081712,12.2708171 15.1284046,11.5050584 15.548638,10.7673152 C15.9875485,10.0015564 16.4357976,9.25447472 16.8933852,8.53540857 C16.9214008,8.49805447 16.9494163,8.45136186 16.9680934,8.40466926 C17.4163423,7.69494164 17.8645914,7.02256809 18.322179,6.3688716 L16.9494163,3.78210117 C16.8466926,3.90350195 16.7439688,4.03424124 16.6412451,4.16498054 C16.2490272,4.65992219 15.8381323,5.18287938 15.4178988,5.74319067 C14.9416342,6.37821012 14.4560311,7.05058367 13.9610895,7.76031129 C13.5035019,8.41400778 13.0365758,9.10505837 12.5789883,9.8054475 C12.1867704,10.4124514 11.785214,11.0287938 11.3929961,11.6731518 C11.3743191,11.7011673 11.3649805,11.7198443 11.3463035,11.7478599 L11.3463035,11.8505837 L13.0552529,15.240467 L13.1299611,15.2684825 C13.5128405,14.5214008 13.8957199,13.7743191 14.2879377,13.0459144 Z" id="Path" fill="url(#linearGradient-2)"></path>
            <path d="M6.84513619,29.640467 C7.15330738,28.8373541 7.48015563,28.0249028 7.80700389,27.2031129 C8.12451362,26.4186771 8.44202334,25.6249028 8.77821012,24.8311284 C9.10505837,24.037354 9.45058368,23.2435798 9.79610897,22.440467 C10.1509728,21.6280157 10.5058366,20.8155642 10.8700389,20.0124515 C11.2342413,19.2186771 11.5984436,18.4249028 11.9719844,17.640467 C12.1027238,17.3603113 12.2428015,17.0708172 12.3828794,16.7906615 C12.6163424,16.3050584 12.8591439,15.8194553 13.092607,15.3431907 C13.1019456,15.3151752 13.1206225,15.2964981 13.1299611,15.2684825 L11.3463035,11.7478599 C11.318288,11.7945525 11.2902724,11.8412452 11.2622568,11.8879377 C10.8513619,12.5696498 10.4311284,13.2607004 10.029572,13.970428 C9.61867706,14.6894942 9.21712062,15.4178988 8.82490272,16.155642 C8.48871595,16.7813229 8.17120623,17.407004 7.85369649,18.0420234 C7.78832685,18.1727627 7.73229572,18.2941634 7.66692606,18.4249028 C7.27470817,19.2280157 6.92918288,19.9937744 6.61167315,20.7408561 C6.25680935,21.5813229 5.93929962,22.3844358 5.65914396,23.1501947 C5.47237354,23.6544747 5.31361867,24.1307394 5.15486382,24.5976654 C5.03346304,24.9898833 4.91206225,25.3914396 4.8,25.7836577 C4.52918288,26.7175097 4.30505836,27.6420234 4.11828793,28.5758756 L4.14630351,28.6879377 L5.85525291,32.0871595 L5.91128405,32.1151752 C6.14474709,31.4801556 6.38754864,30.8451362 6.63968871,30.1914396 C6.70505837,30.0046692 6.77976654,29.8272374 6.84513619,29.640467 Z" id="Path" fill="url(#linearGradient-3)"></path>
            <path d="M4.0996109,28.6972763 C3.87548639,29.8272374 3.71673151,30.9571984 3.63268482,32.077821 C3.63268482,32.1151752 3.6233463,32.1525291 3.6233463,32.1992219 C3.06303501,31.3027237 1.5688716,30.4342413 1.5688716,30.4342413 C2.64280157,31.9844358 3.45525291,33.5252919 3.5766537,35.0381323 C3.00700389,35.1595331 2.22256809,34.982101 1.307393,34.6552528 C2.25058366,35.5237355 2.96031129,35.766537 3.24046692,35.8319065 C2.37198444,35.8879377 1.46614786,36.4856031 0.550972763,37.1673151 C1.88638133,36.6256809 2.96031129,36.4108948 3.73540855,36.5789883 C2.51206226,40.0435799 1.28871595,43.8723735 0.0560311284,47.9252919 C0.429571985,47.8132296 0.653696499,47.5610895 0.784435799,47.2155642 C0.999221795,46.477821 2.45603113,41.6591439 4.72529183,35.3182879 C4.79066148,35.1408561 4.85603113,34.9540856 4.92140077,34.7766537 C4.94007781,34.7299611 4.95875485,34.67393 4.97743191,34.6272374 C5.22023346,33.9642024 5.46303501,33.2824903 5.72451361,32.5914396 C5.78054475,32.4326849 5.84591439,32.2739299 5.90194552,32.1151752 C5.90194552,32.1151752 5.90194552,32.1058367 5.90194552,32.1058367 L4.11828793,28.5758755 C4.11828793,28.6225681 4.10894941,28.6599222 4.0996109,28.6972763 Z" id="Path" fill="url(#linearGradient-4)"></path>
            <path d="M18.4996108,6.42490272 C18.0980544,7.04124514 17.6591439,7.74163424 17.1828794,8.53540857 C17.1548638,8.57276265 17.1361868,8.61945525 17.1081712,8.65680934 C16.6972762,9.34785992 16.2677043,10.0949416 15.8101167,10.92607 C15.4178988,11.6357977 15.0070038,12.4015564 14.5774319,13.2326848 C14.203891,13.951751 13.8210117,14.7081712 13.4287938,15.5206225 L13.5128405,15.5579766 L17.8552528,15.0910506 L17.9579766,15.0163424 C19.2747081,14.4093385 19.8630351,13.8583657 20.4326849,13.0645914 C20.582101,12.8498054 20.7408561,12.6163424 20.8902723,12.3828794 C21.3571984,11.6544747 21.8147861,10.8607004 22.2163423,10.0669261 C22.6085604,9.30116732 22.9540855,8.53540857 23.2249027,7.85369649 C23.3929961,7.41478599 23.5330739,7.01322957 23.6264591,6.65836577 C23.7105058,6.34085604 23.7758755,6.04202334 23.8225681,5.76186771 C22.0669262,6.07003891 19.9097275,6.35953308 18.4996108,6.42490272 Z" id="Path" fill="url(#linearGradient-5)"></path>
            <path d="M13.2607004,15.8848249 C13.111284,16.2023346 12.9525292,16.5291829 12.7937743,16.8560311 C12.6256809,17.2108948 12.448249,17.5844358 12.2801557,17.9579766 C12.196109,18.1447471 12.1027237,18.3408561 12.0186771,18.5276265 C11.7478599,19.1066148 11.4863813,19.7042802 11.2062257,20.3206225 C10.8700389,21.0770428 10.5245137,21.8708172 10.1789883,22.6832685 C9.84280153,23.4677043 9.50661479,24.270817 9.170428,25.111284 C8.84357976,25.9050583 8.51673152,26.7268482 8.18988327,27.5673151 C7.89105059,28.3237354 7.5922179,29.0894942 7.29338521,29.8926071 C7.27470817,29.9299611 7.26536965,29.9673151 7.24669261,30.0046692 C6.94785991,30.7984435 6.65639364,31.6059384 6.34822243,32.4370668 C6.33888391,32.4557439 6.3222052,32.5043481 6.31286668,32.5230252 L6.37736541,32.5373431 L7.67626458,32.3976186 L7.74959342,32.3673151 C7.72157786,32.3579766 7.70428016,32.3206225 7.67626458,32.311284 C9.3945525,32.0964981 11.6824903,30.8077821 13.1673152,29.2202334 C13.8490272,28.4918287 14.4653696,27.6233463 15.044358,26.614786 C15.47393,25.8583657 15.8661479,25.0272373 16.2490272,24.1027237 C16.5852139,23.2996108 16.9027237,22.4217898 17.2108948,21.4785991 C16.8186771,21.6840466 16.3610895,21.8428015 15.8661479,21.9455253 C15.782101,21.9642024 15.688716,21.9828793 15.5953308,22.0015563 C15.5019456,22.0202334 15.4085604,22.0295719 15.3245136,22.048249 C16.9307394,21.4319067 17.9392996,20.2365759 18.6770428,18.7797666 C18.2568093,19.0692606 17.5657587,19.4428015 16.7439688,19.6295719 C16.6319065,19.6575876 16.5198444,19.6762647 16.3984435,19.6949416 C16.3704281,19.6949416 16.3424124,19.7042802 16.3143969,19.7042802 C16.8747081,19.470817 17.3416342,19.2093385 17.7525291,18.9011673 C17.8365759,18.8357976 17.9206225,18.770428 18.0046692,18.6957199 C18.12607,18.5836576 18.2474709,18.4715953 18.359533,18.359533 C18.4342413,18.2848249 18.4996108,18.2101167 18.5743191,18.12607 C18.7330739,17.9392996 18.8824904,17.7338521 19.0225682,17.5097277 C19.0692606,17.444358 19.1066148,17.3696499 19.1533074,17.3042802 C19.2093386,17.2015564 19.2560312,17.0988327 19.3027238,16.9961089 C19.5268482,16.5478599 19.7042801,16.1463034 19.844358,15.7914396 C19.9190661,15.6140077 19.9750972,15.4552528 20.0311284,15.2964981 C20.0498053,15.2404669 20.0684824,15.1750972 20.0964981,15.1190661 C20.1525291,14.9509728 20.1992219,14.8015564 20.2365759,14.6614786 C20.2926071,14.4653696 20.3206225,14.3066148 20.3392997,14.1945525 C20.2832685,14.2412452 20.2272373,14.2785992 20.1525291,14.3252918 C19.6669262,14.614786 18.8357976,14.8762646 18.1634241,14.9976653 L19.4894941,14.848249 L18.1634241,14.9976653 C18.0700389,15.0163423 18.0046692,15.0256809 17.9299611,15.044358 C17.9361868,15.0381322 16.4384895,15.1964866 13.4368692,15.519421 C13.4181922,15.5380981 13.307393,15.7727626 13.2607004,15.8848249 Z" id="Path" fill="url(#linearGradient-6)"></path>
            <path d="M6.17276265,32.8715953 C5.93929961,33.5159533 5.69649805,34.1789883 5.46303501,34.8513619 C5.46303501,34.8607004 5.45369649,34.8700389 5.45369649,34.8793774 C5.41634241,34.9727626 5.38832685,35.0661479 5.35097275,35.1688716 C5.1922179,35.626459 5.05214008,36.0280157 4.73463035,36.9618676 C5.25758755,37.2046692 5.67782101,37.8303501 6.07937743,38.5494164 C6.04202334,37.8116731 5.73385214,37.111284 5.14552528,36.5789883 C7.73229572,36.6910506 9.96420234,36.037354 11.1128405,34.1509728 C11.2155642,33.9828793 11.3089494,33.8054475 11.3929961,33.6186771 C10.8700389,34.281712 10.2163424,34.5618676 9.00233463,34.4964981 C9.00233463,34.4964981 8.99299611,34.4964981 8.99299611,34.4964981 C8.99299611,34.4964981 9.00233463,34.4964981 9.00233463,34.4964981 C10.8046692,33.6933852 11.7011673,32.9182879 12.5042801,31.6389105 C12.6910506,31.3307394 12.877821,31.003891 13.0645914,30.6396886 C11.4863813,32.2552528 9.66536963,32.7128405 7.75097276,32.3673151 L6.31284047,32.5260701 C6.26614787,32.6287938 6.21945525,32.7501946 6.17276265,32.8715953 Z" id="Path" fill="url(#linearGradient-7)"></path>
        </g>
    </g>
</svg>