<?xml version="1.0" encoding="UTF-8"?>
<svg width="236px" height="54px" viewBox="0 0 236 54" version="1.1" xmlns="http://www.w3.org/2000/svg" xmlns:xlink="http://www.w3.org/1999/xlink">
    <title>logo-integrations-Desktop HD</title>
    <defs>
        <linearGradient x1="0.0134013885%" y1="49.9867146%" x2="99.9964313%" y2="49.9867146%" id="linearGradient-1">
            <stop stop-color="#2A59A2" offset="0%"></stop>
            <stop stop-color="#2A59A2" offset="100%"></stop>
        </linearGradient>
        <linearGradient x1="-7.19405968%" y1="50.001536%" x2="179.654087%" y2="50.001536%" id="linearGradient-2">
            <stop stop-color="#91D3F2" offset="0%"></stop>
            <stop stop-color="#6FB2DE" offset="26.6%"></stop>
            <stop stop-color="#5598CE" offset="52.1%"></stop>
            <stop stop-color="#4B8FC8" offset="67.3%"></stop>
        </linearGradient>
        <linearGradient x1="0.021406413%" y1="49.9963523%" x2="160.904451%" y2="49.9963523%" id="linearGradient-3">
            <stop stop-color="#2C9EC7" offset="0%"></stop>
            <stop stop-color="#2C63A5" offset="40.4%"></stop>
            <stop stop-color="#395DA1" offset="100%"></stop>
        </linearGradient>
        <linearGradient x1="-415.684564%" y1="50.0301724%" x2="441.805369%" y2="50.0301724%" id="linearGradient-4">
            <stop stop-color="#4FAAC4" offset="0%"></stop>
            <stop stop-color="#2F75B1" offset="0.2%"></stop>
            <stop stop-color="#356EAC" offset="100%"></stop>
        </linearGradient>
        <linearGradient x1="0.0392156863%" y1="49.9964602%" x2="162.197059%" y2="49.9964602%" id="linearGradient-5">
            <stop stop-color="#4FAAC4" offset="0%"></stop>
            <stop stop-color="#2F81B6" offset="0.2%"></stop>
            <stop stop-color="#3B5EA9" offset="100%"></stop>
        </linearGradient>
        <linearGradient x1="-79.5882353%" y1="49.992528%" x2="146.678523%" y2="49.992528%" id="linearGradient-6">
            <stop stop-color="#4FAAC4" offset="0%"></stop>
            <stop stop-color="#1E3773" offset="0.2%"></stop>
            <stop stop-color="#203370" offset="100%"></stop>
        </linearGradient>
        <linearGradient x1="49.9450767%" y1="147.238924%" x2="49.9450767%" y2="-2.87799508%" id="linearGradient-7">
            <stop stop-color="#4FAAC4" offset="0%"></stop>
            <stop stop-color="#2C5A9A" offset="0.2%"></stop>
            <stop stop-color="#374580" offset="100%"></stop>
        </linearGradient>
        <linearGradient x1="-22.2241935%" y1="49.9667396%" x2="129.568548%" y2="49.9667396%" id="linearGradient-8">
            <stop stop-color="#38B1DA" offset="11.2%"></stop>
            <stop stop-color="#326FB5" offset="100%"></stop>
        </linearGradient>
    </defs>
    <g id="Desktop-HD" stroke="none" stroke-width="1" fill="none" fill-rule="evenodd">
        <g id="logo-fluentd" transform="translate(48.000000, 3.000000)" fill-rule="nonzero">
            <g id="g5529" transform="translate(50.451429, 25.688571)" fill="#191D1E">
                <path d="M42.4208571,4.99885714 C38.7411429,4.99885714 35.7325714,7.98428571 35.7325714,11.6871429 L35.7325714,13.6774286 C35.7325714,17.3571429 38.718,20.3657143 42.4208571,20.3657143 L46.6791429,20.3657143 L46.6791429,17.9357143 L42.4208571,17.9357143 C40.1528571,17.9357143 38.2782857,16.1537143 38.1625714,13.9088571 L46.8874286,13.9088571 C48.114,13.9088571 49.0861326,12.9137143 49.0861326,11.7102857 C49.1091429,8.00742857 46.1005714,4.99885714 42.4208571,4.99885714 Z M38.1625714,11.4557143 C38.2782857,9.21085714 40.1528571,7.42885714 42.4208571,7.42885714 C44.6888571,7.42885714 46.5634286,9.21085714 46.6791429,11.4557143 L38.1625714,11.4557143 L38.1625714,11.4557143 Z" id="path5531"></path>
                <path d="M2.93914286,1.66628571 C1.99028571,2.63828571 1.48114286,3.93428571 1.48114286,5.27657143 L1.48114286,5.60057143 L0.0694285714,5.60057143 L0.0694285714,8.03057143 L1.48114286,8.03057143 L1.48114286,20.3657143 L3.91114286,20.3657143 L3.91114286,8.05371429 L7.17428571,8.05371429 L7.17428571,5.62371429 L3.91114286,5.62371429 L3.91114286,5.29971429 C3.91114286,3.81857143 5.11457143,2.56885714 6.54942857,2.56885714 L8.33142857,2.56885714 L8.33142857,0.138857143 L6.54942857,0.138857143 C5.184,0.115714286 3.91114286,0.671142857 2.93914286,1.66628571 L2.93914286,1.66628571 Z" id="path5533"></path>
                <polygon id="rect5535" points="12.15 0.0925714286 14.58 0.0925714286 14.58 20.3425714 12.15 20.3425714"></polygon>
                <path d="M29.322,14.1171429 C29.322,16.2231429 27.6094286,17.9357143 25.5034286,17.9357143 C23.3974286,17.9357143 21.6848571,16.2231429 21.6848571,14.1171429 L21.6848571,4.99885714 L19.2548571,4.99885714 L19.2548571,14.1171429 C19.2548571,17.5654286 22.0551429,20.3657143 25.5034286,20.3657143 C28.9517143,20.3657143 31.752,17.5654286 31.752,14.1171429 L31.752,4.99885714 L29.322,4.99885714 L29.322,14.1171429 Z" id="path5537"></path>
                <path d="M57.7877143,4.99885714 C54.3394286,4.99885714 51.5391429,7.79914286 51.5391429,11.2474286 L51.5391429,20.3657143 L53.9691429,20.3657143 L53.9691429,11.2474286 C53.9691429,9.14142857 55.6817143,7.42885714 57.7877143,7.42885714 C59.8937143,7.42885714 61.6062857,9.14142857 61.6062857,11.2474286 L61.6062857,20.3657143 L64.0362857,20.3657143 L64.0362857,11.2474286 C64.0362857,7.79914286 61.236,4.99885714 57.7877143,4.99885714 Z" id="path5539"></path>
                <path d="M71.0717143,15.1817143 L71.0717143,7.42885714 L74.358,7.42885714 L74.358,4.99885714 L71.0717143,4.99885714 L71.0717143,0.115714286 L68.6417143,0.115714286 L68.6417143,4.99885714 L66.4894286,4.99885714 L66.4894286,7.40571429 L68.6417143,7.40571429 L68.6417143,15.1585714 C68.6417143,17.9588571 70.9097143,20.2268571 73.71,20.2268571 L74.7745714,20.2268571 L74.7745714,17.82 L73.6868571,17.82 C72.252,17.82 71.0717143,16.6397143 71.0717143,15.1817143 Z" id="path5541"></path>
                <path d="M86.9245714,0.0925714286 L86.9245714,6.29485714 C85.86,5.48485714 84.5408571,4.99885714 83.106,4.99885714 C79.6577143,4.99885714 76.8574286,7.79914286 76.8574286,11.2474286 L76.8574286,14.1171429 C76.8574286,17.5654286 79.6577143,20.3657143 83.106,20.3657143 C86.5542857,20.3657143 89.3545714,17.5654286 89.3545714,14.1171429 L89.3545714,0.115714286 L86.9245714,0.0925714286 Z M86.9245714,12.6128571 L86.9245714,14.1171429 C86.9245714,16.2231429 85.212,17.9357143 83.106,17.9357143 C81,17.9357143 79.2874286,16.2231429 79.2874286,14.1171429 L79.2874286,11.2474286 C79.2874286,9.14142857 81,7.42885714 83.106,7.42885714 C85.212,7.42885714 86.9245714,9.14142857 86.9245714,11.2474286 L86.9245714,12.6128571 Z" id="path5543"></path>
            </g>
            <g id="g5545">
                <path d="M58.4125714,20.8054286 L57.3711429,20.8054286 C55.4734286,20.7822857 51.8168571,20.9905714 48.4842857,23.8834286 C40.5694286,30.78 38.7642857,40.9628571 25.2025714,46.4477143 C13.9088571,51.03 0,46.6791429 0,46.6791429 C0,46.6791429 12.4045714,45.8228571 14.0708571,36.2648571 C15.3668571,28.7897143 8.60914286,23.49 4.374,16.7554286 C0.0694285714,9.90514286 -1.04142857,4.212 1.04142857,1.75885714 C6.91971429,-5.25342857 23.0965714,13.6542857 31.1502857,16.2 C39.0188571,18.6994286 44.3185714,12.9137143 50.8448571,13.7468571 C52.9277143,14.0245714 53.946,14.9271429 54.6171429,16.0611429 C54.8485714,16.4545714 55.404,17.7737143 55.9131429,18.2597143 C56.3991429,18.7225714 57.0471429,19.0928571 57.6488571,19.4631429 C58.3894286,19.926 59.1531429,20.8054286 58.4125714,20.8054286 Z" id="path5552" fill="url(#linearGradient-1)"></path>
                <path d="M21.1988571,9.882 C19.2548571,8.37771429 17.2414286,6.82714286 15.2742857,5.39228571 C14.8345714,5.06828571 14.3948571,4.76742857 13.9551429,4.44342857 C8.65542857,0.81 3.74914286,-1.48114286 1.04142857,1.75885714 C-1.04142857,4.23514286 0.0694285714,9.92828571 4.374,16.7785714 L4.51285714,16.9868571 C6.75771429,20.4814286 13.2608571,28.674 28.6971429,28.3268571 C29.7154286,27.2391429 31.2428571,25.1794286 33.2562857,22.9577143 C30.0162857,17.6811429 25.1331429,13.0988571 21.1988571,9.882 Z" id="path5563" fill="url(#linearGradient-2)"></path>
                <path d="M36.7508571,34.5985714 C36.8202857,32.2611429 36.3805714,29.97 35.5937143,27.7482857 C33.5571429,28.0491429 31.2891429,28.2574286 28.6971429,28.3268571 C26.7994286,30.3402857 22.4948571,35.7557143 15.3437143,40.6157143 C5.832,47.0957143 0,46.6791429 0,46.6791429 C0,46.6791429 13.9088571,51.0068571 25.2025714,46.4477143 C29.2525714,44.8045714 32.2611429,42.7448571 34.668,40.4768571 C35.0845714,40.1065714 36.6582857,38.0931429 36.7508571,34.5985714 L36.7508571,34.5985714 Z" id="path5572" fill="url(#linearGradient-3)"></path>
                <path d="M33.2331429,22.9577143 C31.2428571,25.1794286 29.6922857,27.2391429 28.674,28.3268571 C31.266,28.2805714 33.5571429,28.0722857 35.5705714,27.7482857 C35.3391429,27.0771429 35.0614286,26.4291429 34.7605714,25.7811429 C34.3208571,24.8322857 33.8117143,23.8834286 33.2331429,22.9577143 Z" id="path5581" fill="url(#linearGradient-4)"></path>
                <path d="M44.8045714,14.5105714 C40.6388571,15.7834286 36.4731429,17.9125714 31.1271429,16.2231429 C28.4888571,15.39 24.948,12.7748571 21.1988571,9.882 C25.1331429,13.122 30.0162857,17.7042857 33.2331429,22.9577143 C36.1954286,19.6714286 40.1297143,15.9917143 44.8045714,14.5105714 L44.8045714,14.5105714 Z" id="path5590" fill="url(#linearGradient-5)"></path>
                <path d="M35.5937143,27.7482857 C36.4037143,29.97 36.8202857,32.2611429 36.7508571,34.5985714 C36.6582857,38.0931429 35.0614286,40.0834286 34.668,40.4768571 C40.3611429,35.154 42.9068571,28.7202857 48.4611429,23.8834286 C49.5025714,22.9808571 50.5671429,22.3328571 51.5854286,21.8931429 C47.9751429,23.4205714 44.0177143,26.4754286 35.5937143,27.7482857 Z" id="path5599" fill="url(#linearGradient-6)"></path>
                <path d="M58.4125714,20.8054286 C59.1762857,20.8054286 58.4125714,19.926 57.6488571,19.4631429 C57.0471429,19.0928571 56.3991429,18.7457143 55.9131429,18.2597143 C55.404,17.7737143 54.8485714,16.4545714 54.6171429,16.0611429 C53.946,14.904 52.9277143,14.0014286 50.8448571,13.7468571 C48.762,13.4691429 46.7948571,13.8857143 44.8277143,14.4874286 C40.1528571,15.9685714 36.2185714,19.6482857 33.2562857,22.9577143 C33.8117143,23.8834286 34.344,24.8322857 34.7837143,25.7811429 C35.0845714,26.4291429 35.3622857,27.0771429 35.5937143,27.7482857 C44.0177143,26.4754286 47.9751429,23.4205714 51.6085714,21.8931429 C53.8997143,20.898 56.052,20.8054286 57.348,20.8054286 L58.4125714,20.8054286 L58.4125714,20.8054286 Z" id="path5608" fill="url(#linearGradient-7)"></path>
                <path d="M15.3437143,40.6157143 C22.4948571,35.7557143 26.7994286,30.3402857 28.6971429,28.3268571 C13.284,28.674 6.75771429,20.4814286 4.51285714,16.9868571 C8.748,23.6288571 15.3437143,28.8822857 14.0708571,36.2648571 C12.4277143,45.7997143 0,46.6791429 0,46.6791429 C0,46.6791429 5.832,47.0957143 15.3437143,40.6157143 Z" id="path5615" fill="url(#linearGradient-8)"></path>
                <circle id="circle5617" fill="#FFFFFF" cx="50.4051429" cy="17.334" r="1.22657143"></circle>
            </g>
        </g>
    </g>
</svg>