<?xml version="1.0" encoding="UTF-8"?>
<svg width="236px" height="54px" viewBox="0 0 236 54" version="1.1" xmlns="http://www.w3.org/2000/svg" xmlns:xlink="http://www.w3.org/1999/xlink">
    <!-- Generator: Sketch 60.1 (88133) - https://sketch.com -->
    <title>icon-email-32-color</title>
    <desc>Created with Sketch.</desc>
    <g id="icon-email-32-color" stroke="none" stroke-width="1" fill="none" fill-rule="evenodd">
        <rect id="Rectangle" x="0" y="0" width="236" height="54"></rect>
        <path d="M88.4602249,32.6363525 L88.4602249,25.3124959 L88.5454521,25.3124959 L93.6079473,32.6363525 L95.7329453,32.6363525 L95.7329453,21 L93.284084,21 L93.284084,28.3181748 L93.1818113,28.3181748 L88.1590889,21 L86,21 L86,32.6363525 L88.4602249,32.6363525 Z M101.693178,32.8068069 C103.852267,32.8068069 105.306811,31.7556716 105.64772,30.1363549 L103.409086,29.9886278 C103.164768,30.6533999 102.539768,30.9999905 101.732951,30.9999905 C100.522725,30.9999905 99.7556799,30.1988549 99.7556799,28.8977197 L99.7556799,28.8920379 L105.698856,28.8920379 L105.698856,28.2272658 C105.698856,25.2613596 103.903403,23.7954519 101.596587,23.7954519 C99.0284079,23.7954519 97.3636367,25.6193138 97.3636367,28.312493 C97.3636367,31.0795358 99.0056806,32.8068069 101.693178,32.8068069 Z M103.420449,27.3920394 L99.7556799,27.3920394 C99.8068162,26.3977221 100.562497,25.6022683 101.63636,25.6022683 C102.687495,25.6022683 103.414767,26.3522676 103.420449,27.3920394 Z M110.767042,32.7556706 C111.392042,32.7329434 111.835223,32.6079435 112.079541,32.5283981 L111.698859,30.7272635 C111.579541,30.7499907 111.32386,30.8068088 111.096587,30.8068088 C110.613633,30.8068088 110.278406,30.6249908 110.278406,29.9545369 L110.278406,25.7272682 L111.92045,25.7272682 L111.92045,23.9090881 L110.278406,23.9090881 L110.278406,21.818181 L107.857954,21.818181 L107.857954,23.9090881 L106.664773,23.9090881 L106.664773,25.7272682 L107.857954,25.7272682 L107.857954,30.2727184 C107.84659,31.9829441 109.011362,32.8295342 110.767042,32.7556706 Z M115.999998,32.6363525 L115.999998,27.8295389 L120.732948,27.8295389 L120.732948,25.8011318 L115.999998,25.8011318 L115.999998,23.0284072 L121.244311,23.0284072 L121.244311,21 L113.539773,21 L113.539773,32.6363525 L115.999998,32.6363525 Z M125.272725,32.6363525 L125.272725,21 L122.852273,21 L122.852273,32.6363525 L125.272725,32.6363525 Z M131.147724,32.8068069 C133.795448,32.8068069 135.443174,30.9943087 135.443174,28.3068112 C135.443174,25.6022683 133.795448,23.7954519 131.147724,23.7954519 C128.499999,23.7954519 126.852273,25.6022683 126.852273,28.3068112 C126.852273,30.9943087 128.499999,32.8068069 131.147724,32.8068069 Z M131.159087,30.9318087 C129.937497,30.9318087 129.312498,29.8124916 129.312498,28.2897658 C129.312498,26.76704 129.937497,25.642041 131.159087,25.642041 C132.35795,25.642041 132.982949,26.76704 132.982949,28.2897658 C132.982949,29.8124916 132.35795,30.9318087 131.159087,30.9318087 Z M141.301132,32.6363525 L142.801131,27.1477214 L142.909085,27.1477214 L144.409084,32.6363525 L146.971581,32.6363525 L149.340897,23.9090881 L146.897718,23.9090881 L145.568174,29.738628 L145.49431,29.738628 L144.062493,23.9090881 L141.659087,23.9090881 L140.249997,29.7727189 L140.170452,29.7727189 L138.81818,23.9090881 L136.369319,23.9090881 L138.744317,32.6363525 L141.301132,32.6363525 Z" id="NetFlow" fill="#535766" fill-rule="nonzero"></path>
    </g>
</svg>