<svg width="32" height="32" viewBox="0 0 32 32" fill="none" xmlns="http://www.w3.org/2000/svg">
<path fill-rule="evenodd" clip-rule="evenodd" d="M4 2C2.89543 2 2 2.89543 2 4V16H0V18H32V16H30V4C30 2.89543 29.1046 2 28 2H4ZM28 16V4H4V16H28Z" fill="#0B64DD"/>
<path fill-rule="evenodd" clip-rule="evenodd" d="M9 8H6V6H9V8Z" fill="#0B64DD"/>
<path fill-rule="evenodd" clip-rule="evenodd" d="M24 13H6V11H24V13Z" fill="#0B64DD"/>
<path fill-rule="evenodd" clip-rule="evenodd" d="M21 23H6V21H21V23Z" fill="#101C3F"/>
<path fill-rule="evenodd" clip-rule="evenodd" d="M15 8H12V6H15V8Z" fill="#0B64DD"/>
<path fill-rule="evenodd" clip-rule="evenodd" d="M2 28V20H4V28H28V20H30V28C30 29.1046 29.1046 30 28 30H4C2.89543 30 2 29.1046 2 28Z" fill="#101C3F"/>
</svg>
