<?xml version="1.0" encoding="UTF-8"?>
<svg width="236px" height="54px" viewBox="0 0 236 54" version="1.1" xmlns="http://www.w3.org/2000/svg" xmlns:xlink="http://www.w3.org/1999/xlink">
    <title>logo-integrations-Desktop HD</title>
    <g id="Desktop-HD" stroke="none" stroke-width="1" fill="none" fill-rule="evenodd">
        <g id="logo-pagerduty" transform="translate(52.000000, 13.000000)" fill="#06AC38" fill-rule="nonzero">
            <path d="M128.839056,5.67949128 L125.856985,14.1377313 C125.31479,15.6558769 125.043692,16.5233887 124.542162,17.9873149 L124.487943,17.9873149 C124.094851,16.7267118 123.742425,15.7100964 123.227339,14.2190605 L120.326597,5.66593641 L116.85655,5.66593641 L122.861358,21.3624779 C122.725809,21.7013497 122.590261,22.0537764 122.441157,22.4197579 C121.939627,23.6396964 120.746798,24.4394338 119.431975,24.4394338 L117.940939,24.4394338 L117.940939,27.1097436 L119.47264,27.1097436 C121.953182,27.1097436 124.189735,25.6051528 125.111467,23.2872697 C127.022704,18.5024 130.275873,10.3559221 132.13289,5.67949128 L128.839056,5.67949128 Z" id="Path"></path>
            <path d="M45.571479,18.3532964 C45.571479,24.0327877 42.9689436,27.1097436 37.7096533,27.1097436 C33.7922954,27.1097436 31.4337477,25.0494031 30.5933456,21.9453374 L33.7651856,21.9453374 C34.3073805,23.3821538 35.4324349,24.6698667 37.7638728,24.6698667 C41.3559138,24.6698667 42.6300718,22.4333128 42.6300718,18.1770831 C42.6029621,18.1770831 42.6029621,18.1499733 42.5758523,18.1499733 C41.8032246,19.4919056 40.068201,20.6847344 37.3165621,20.6847344 C32.8976738,20.6847344 30.0782605,17.4857846 30.0782605,12.9991221 C30.0782605,8.33624615 33.1281067,5.1915159 37.3436718,5.1915159 C40.068201,5.1915159 41.7083405,6.35723487 42.6029621,7.64494769 C42.5758523,7.31963077 42.5758523,6.98075897 42.5758523,6.65544205 L42.5758523,5.66593641 L45.571479,5.66593641 L45.571479,18.3532964 L45.571479,18.3532964 Z M33.3720944,12.9720123 C33.3720944,16.0218585 35.0800082,18.2041928 38.0078605,18.2041928 C40.6375056,18.2041928 42.6707364,16.3471754 42.6707364,12.8771282 C42.6707364,9.80017231 40.8814933,7.73983179 38.0078605,7.73983179 C35.1342277,7.73983179 33.3720944,9.80017231 33.3720944,12.9720123 Z" id="Shape"></path>
            <path d="M50.5190072,14.3139446 C50.641001,17.0655836 52.4031344,19.2479179 55.4529805,19.2479179 C57.6082051,19.2479179 58.6519303,18.2313026 59.4516677,16.8893703 L62.4744041,16.8893703 C61.5797826,19.7223385 59.099241,21.7555692 55.3309867,21.7555692 C50.4918974,21.7555692 47.469161,18.5024 47.469161,13.5955364 C47.469161,8.68867282 50.6138913,5.23218051 55.3309867,5.23218051 C60.4411733,5.23218051 62.799721,9.12242872 62.799721,13.3379938 L62.799721,14.3274995 L50.5190072,14.3274995 L50.5190072,14.3139446 Z M59.6549908,11.9282872 C59.3838933,9.44774564 57.8250831,7.68561231 55.2632123,7.68561231 C52.8097805,7.68561231 50.9256533,9.29864205 50.6274462,11.9282872 L59.6549908,11.9282872 Z" id="Shape"></path>
            <path d="M67.6388103,5.67949128 L67.6388103,7.68561231 C68.1403405,6.22168615 69.672041,5.29995487 71.4341744,5.29995487 C71.8272656,5.29995487 72.003479,5.32706462 72.2068021,5.35417436 L72.2068021,8.10581333 C71.9357046,8.05159385 71.4883938,8.01092923 71.1630769,8.01092923 C68.3301087,8.01092923 67.7879138,10.0983795 67.7879138,13.2431097 L67.7879138,21.3760328 L64.7651774,21.3760328 L64.7651774,8.49890462 C64.7651774,7.50939897 64.7651774,6.64188718 64.7380677,5.69304615 L67.6388103,5.69304615 L67.6388103,5.67949128 Z" id="Path"></path>
            <path d="M103.247458,19.1259241 C102.434166,20.4678564 100.916021,21.7555692 98.2592656,21.7555692 C94.6130051,21.7555692 92.8237621,19.5190154 92.8237621,15.4525538 L92.8237621,5.67949128 L95.8329436,5.67949128 L95.8329436,14.3139446 C95.8329436,17.3909005 96.849559,19.2479179 99.3029908,19.2479179 C102.52905,19.2479179 103.098355,16.3200656 103.098355,12.8771282 L103.098355,5.67949128 L106.121091,5.67949128 L106.121091,19.0039303 C106.121091,19.8172226 106.121091,20.5898503 106.148201,21.3624779 L103.247458,21.3624779 L103.247458,19.1259241 Z" id="Path"></path>
            <path d="M112.912082,5.67949128 L115.839934,5.67949128 L115.839934,8.01092923 L112.912082,8.01092923 L112.912082,17.4315651 C112.912082,18.922601 113.6576,19.3699118 114.823319,19.3699118 C115.026642,19.3699118 115.392624,19.3428021 115.568837,19.3156923 L115.568837,21.5522462 C115.121526,21.6064656 114.796209,21.67424 114.403118,21.67424 C111.624369,21.67424 109.862236,20.7525087 109.862236,17.6077785 L109.862236,8.01092923 L107.503688,8.01092923 L107.503688,5.67949128 L109.862236,5.67949128 L109.862236,1.43681641 L112.912082,1.43681641 L112.912082,5.67949128 Z" id="Path"></path>
            <g id="Group">
                <rect id="Rectangle" x="0" y="15.6694318" width="3.13117538" height="5.69304615"></rect>
                <path d="M11.7927385,1.04372513 C10.1119344,0.14910359 8.94621538,0 6.19457641,0 L0,0 L0,12.9584574 L3.13117538,12.9584574 L3.53782154,12.9584574 L6.16746667,12.9584574 C8.62089846,12.9584574 10.4508062,12.8093538 12.0638359,11.738519 C13.8259692,10.5728 14.7341456,8.63445333 14.7341456,6.39789949 C14.7341456,3.97157744 13.6090913,2.03323077 11.7927385,1.04372513 Z M6.88587487,10.2474831 L3.13117538,10.2474831 L3.13117538,2.77874872 L6.66899692,2.75163897 C9.89505641,2.71097436 11.5080862,3.84958359 11.5080862,6.42500923 C11.5080862,9.19020308 9.51552,10.2474831 6.88587487,10.2474831 Z" id="Shape"></path>
            </g>
            <path d="M74.0502646,0 L79.2824451,0 C87.117161,0.0542194872 90.8854154,3.87669333 90.9125251,10.7354585 C90.9396349,16.5776082 87.9168985,21.2947036 79.7975303,21.3760328 L74.0638195,21.3760328 L74.0638195,0 L74.0502646,0 Z M77.2221046,18.7057231 L79.0520123,18.7057231 C84.7315036,18.7057231 87.7000205,16.5369436 87.7000205,10.7219036 C87.6864656,5.61171692 84.7450585,2.68386462 79.3502195,2.68386462 C78.3064944,2.68386462 77.2221046,2.71097436 77.2221046,2.71097436 L77.2221046,18.7057231 L77.2221046,18.7057231 Z" id="Shape"></path>
            <path d="M25.7135918,21.3760328 C25.6187077,20.7525087 25.6187077,20.3594174 25.5644882,19.2208082 C24.3716595,20.9287221 22.7857395,21.67424 20.2780882,21.67424 C16.9842544,21.67424 14.5985969,20.0612103 14.5985969,17.1333579 C14.5985969,13.7581949 17.8246564,12.6466954 22.0131118,12.0773908 C23.0568369,11.9282872 24.2225559,11.8062933 25.2391713,11.7249641 C25.2391713,8.62089846 23.5177026,7.68561231 21.7149046,7.68561231 C19.9121067,7.68561231 18.5972841,8.94621538 18.5972841,10.5999097 L15.6694318,10.5999097 C15.6694318,7.41451487 18.1770831,5.27284513 21.782679,5.27284513 C25.3882749,5.27284513 28.1670236,6.76388103 28.1670236,12.5111467 L28.1670236,15.5609928 C28.1670236,18.0957538 28.2890174,19.9527713 28.5601149,21.3895877 L25.7135918,21.3895877 L25.7135918,21.3760328 Z M17.8517662,17.0926933 C17.8517662,18.5566195 19.0445949,19.4783508 20.9558318,19.4783508 C23.7616903,19.4783508 25.266281,17.7704369 25.266281,14.7205908 C25.266281,14.3274995 25.266281,14.0564021 25.2933908,13.8801887 C20.1832041,14.4088287 17.8517662,14.910359 17.8517662,17.0926933 Z" id="Shape"></path>
        </g>
    </g>
</svg>