<svg width="236" height="54" viewBox="0 0 236 54" fill="none" xmlns="http://www.w3.org/2000/svg">
<rect width="236" height="54" fill="white"/>
<path d="M153 9H83V44H153V9Z" fill="#D05857"/>
<path d="M89.1031 28.7235H89.1776C90.1079 28.7235 91.0383 28.7235 91.9686 28.7235C92.4891 28.7129 93.003 28.8414 93.4572 29.0957C94.0022 29.4195 94.4019 29.9405 94.5736 30.5508C94.794 31.301 94.781 32.1005 94.5364 32.8432C94.3687 33.4205 94.0106 33.9241 93.5205 34.2722C93.1626 34.527 92.7417 34.6789 92.3036 34.7113C91.8719 34.7448 91.4327 34.7336 90.9973 34.7411H90.7778V37.2828H89.1776C89.1528 37.2846 89.1279 37.2846 89.1031 37.2828V28.7235ZM90.7889 30.1712V33.3381H90.8373C91.1462 33.3381 91.4551 33.3381 91.764 33.3381C91.8439 33.3381 91.9236 33.3306 92.0021 33.3158C92.24 33.278 92.4618 33.1722 92.6408 33.011C92.8197 32.8499 92.9482 32.6403 93.0106 32.4078C93.1048 32.0842 93.1327 31.745 93.0925 31.4104C93.0791 31.1813 93.0128 30.9584 92.899 30.7592C92.7893 30.5796 92.635 30.4314 92.4511 30.329C92.2672 30.2266 92.06 30.1736 91.8495 30.1749C91.5072 30.1749 91.1648 30.1749 90.8224 30.1749L90.7889 30.1712Z" fill="white"/>
<path d="M100.755 37.2419V38.7714H96.1292V30.2121H97.7554V28.7236H100.617V30.2121H97.7629V32.8915H100.405V34.2796H97.7629V37.2568L100.755 37.2419Z" fill="white"/>
<path d="M103.84 31.7007V37.2828H102.307V28.7235H104.167C104.187 28.7212 104.206 28.726 104.222 28.737C104.237 28.7479 104.249 28.7644 104.253 28.7831L107.048 35.7943C107.057 35.8118 107.068 35.8281 107.081 35.8426V35.8426V30.2493H108.57V38.7714H108.51C107.926 38.7714 107.342 38.7714 106.761 38.7714C106.743 38.7748 106.723 38.7709 106.707 38.7605C106.691 38.7501 106.68 38.734 106.676 38.7156C105.954 36.9144 104.093 32.2849 103.885 31.7677L103.84 31.6746V31.7007Z" fill="white"/>
<path d="M112.355 39.0207L112.023 38.9835C111.222 38.884 110.479 38.5107 109.921 37.9266L109.869 37.8671L110.784 36.6279C110.888 36.7283 110.985 36.8325 111.093 36.9219C111.488 37.2699 111.995 37.4641 112.522 37.4689C112.807 37.4775 113.086 37.3828 113.307 37.2023C113.528 37.0218 113.676 36.7676 113.724 36.4864C113.803 36.1524 113.779 35.8023 113.657 35.4817C113.568 35.2735 113.427 35.0916 113.248 34.9532C112.956 34.7173 112.639 34.5139 112.302 34.3466C111.96 34.1864 111.633 33.9932 111.327 33.7698C111.028 33.5494 110.778 33.2673 110.597 32.9424C110.415 32.6176 110.305 32.2577 110.274 31.8868C110.21 31.3872 110.253 30.8798 110.401 30.3982C110.54 29.9224 110.81 29.4954 111.181 29.1662C111.551 28.8371 112.007 28.6192 112.496 28.5375C112.615 28.5114 112.734 28.504 112.85 28.4854C112.861 28.4875 112.872 28.4875 112.883 28.4854H113.367L113.665 28.5226C114.261 28.5905 114.821 28.8414 115.268 29.2408C115.343 29.3115 115.421 29.3748 115.499 29.4455L114.569 30.6624C114.506 30.6103 114.439 30.5619 114.379 30.5061C114.174 30.2967 113.918 30.1448 113.635 30.0658C113.353 29.9868 113.055 29.9833 112.771 30.0558C112.608 30.0913 112.456 30.1647 112.327 30.2701C112.197 30.3755 112.095 30.5099 112.027 30.6624C111.93 30.8782 111.879 31.1122 111.879 31.349C111.879 31.5858 111.93 31.8199 112.027 32.0356C112.1 32.1953 112.21 32.3356 112.347 32.445C112.616 32.6679 112.909 32.8589 113.222 33.0144C113.598 33.1945 113.958 33.4074 114.297 33.6507C114.8 34.0182 115.168 34.5415 115.343 35.1393C115.438 35.5033 115.47 35.881 115.436 36.2557C115.408 36.7574 115.26 37.245 115.004 37.6773C114.808 38.0223 114.536 38.318 114.208 38.5418C113.881 38.7656 113.506 38.9116 113.114 38.9686C112.998 38.991 112.883 38.9984 112.768 39.0096H112.734L112.355 39.0207Z" fill="white"/>
<path d="M119.526 30.2791C119.03 32.6087 118.533 34.9396 118.037 37.2717H116.348C116.941 34.9272 117.522 32.5851 118.093 30.2456H119.53C119.422 29.7395 119.314 29.2408 119.206 28.731H120.586C120.638 28.731 120.657 28.731 120.668 28.798C121.003 30.1712 122.979 38.2541 123.087 38.7007C123.087 38.7007 123.087 38.7379 123.087 38.764H121.346C120.74 35.9357 120.136 33.1086 119.533 30.2828L119.526 30.2791Z" fill="white"/>
<path d="M128.937 35.8501V30.2679H130.404V38.7714H130.337C129.756 38.7714 129.175 38.7714 128.591 38.7714C128.572 38.7736 128.552 38.7683 128.536 38.7566C128.52 38.7448 128.509 38.7275 128.506 38.7081C127.687 36.6688 125.819 32.0096 125.707 31.7416L125.677 31.6821H125.659V37.2828H124.14V28.7235H126.023C126.042 28.7212 126.06 28.7256 126.075 28.7358C126.09 28.7461 126.101 28.7616 126.105 28.7794L128.874 35.7943C128.874 35.8203 128.9 35.8426 128.911 35.8687L128.937 35.8501Z" fill="white"/>
<path d="M133.85 37.2828H132.141V28.7235H132.208C133.068 28.7235 133.928 28.7235 134.787 28.7235C135.473 28.7138 136.148 28.8982 136.734 29.2557C137.249 29.5877 137.664 30.0533 137.936 30.6029C138.201 31.1216 138.382 31.6794 138.472 32.2552C138.567 32.8706 138.603 33.4936 138.579 34.1159C138.567 34.8773 138.43 35.6315 138.174 36.3487C137.996 36.875 137.709 37.3581 137.333 37.7666C136.881 38.2248 136.301 38.5361 135.669 38.6597C135.337 38.7318 134.997 38.7667 134.657 38.764H133.868L133.85 37.2828ZM133.85 37.2828H134.758C134.829 37.2791 134.899 37.2716 134.97 37.2605C135.23 37.2183 135.479 37.1211 135.699 36.9754C135.919 36.8298 136.105 36.639 136.246 36.4157C136.569 35.9061 136.765 35.3269 136.819 34.7262C136.868 34.3374 136.886 33.9456 136.875 33.554C136.869 33.1133 136.818 32.6743 136.722 32.244C136.629 31.8025 136.447 31.3847 136.187 31.0159C136.033 30.7849 135.828 30.5923 135.588 30.4529C135.348 30.3135 135.079 30.2311 134.802 30.2121C134.49 30.2121 134.181 30.2121 133.868 30.2121L133.85 37.2828Z" fill="white"/>
<path d="M143.492 39.0207L143.213 38.9872C142.593 38.9061 142.015 38.6283 141.564 38.1946C141.089 37.7329 140.729 37.1655 140.515 36.5385C140.323 36.0002 140.198 35.4403 140.142 34.8713C140.064 34.1805 140.057 33.4835 140.12 32.7911C140.171 32.007 140.361 31.2382 140.682 30.521C140.723 30.4354 140.768 30.3573 140.805 30.2717C140.813 30.2531 140.827 30.2377 140.844 30.2276C140.861 30.2176 140.882 30.2134 140.902 30.2158C141.601 30.2158 142.301 30.2158 143.001 30.2158H143.086C142.937 30.3051 142.802 30.4154 142.684 30.5433C142.41 30.8581 142.21 31.2308 142.1 31.6337C141.917 32.2699 141.828 32.9293 141.836 33.5912C141.836 33.9633 141.836 34.3094 141.88 34.6704C141.912 35.0955 141.994 35.5153 142.126 35.9208C142.243 36.3103 142.444 36.6697 142.714 36.974C142.941 37.227 143.258 37.381 143.598 37.4033C143.937 37.4255 144.272 37.3142 144.53 37.093C144.796 36.857 145.001 36.561 145.129 36.2297C145.349 35.6647 145.475 35.0676 145.501 34.462C145.546 33.9469 145.546 33.429 145.501 32.9139C145.464 32.4433 145.371 31.9786 145.226 31.5295C145.105 31.132 144.892 30.7687 144.604 30.4689C144.464 30.3192 144.288 30.2068 144.093 30.1419C143.898 30.0769 143.69 30.0614 143.488 30.0968C143.348 30.1273 143.21 30.1671 143.075 30.2158C143.075 30.2158 143.075 30.1861 143.075 30.1675V28.571C143.075 28.571 143.075 28.5412 143.075 28.5189L143.38 28.4854H143.443H143.916H143.968C144.08 28.4854 144.191 28.5077 144.303 28.53C145.002 28.6611 145.632 29.0355 146.082 29.5869C146.458 30.0443 146.742 30.5699 146.919 31.135C147.173 31.939 147.298 32.7779 147.291 33.621C147.298 34.0124 147.281 34.4039 147.239 34.7932C147.181 35.4162 147.038 36.0283 146.815 36.613C146.591 37.2376 146.218 37.7983 145.728 38.2467C145.287 38.6513 144.733 38.9111 144.139 38.991L143.86 39.0245L143.492 39.0207Z" fill="white"/>
</svg>
